# xmcd CD database file
#
# Track frame offsets:
#	151
#	12677
#	27970
#	37658
#	47620
#	59891
#	73255
#	86115
#	98175
#	112198
#	125940
#	139470
#	153499
#	166617
#	179986
#	192162
#	207324
#	220487
#	235468
#	249619
#	263729
#
# Disc length: 3702 seconds
#
# Revision: 0
# Processed by: cddbd v1.5.2PL0 Copyright (c) Steve Scherf et al.
# Submitted via: CDex 1.70beta2
#
DISCID=4f0e7415
DTITLE=Gene Krupa - Drummin' man
DYEAR=2005
DGENRE=Jazz
TTITLE0=China boy
TTITLE1=Liza
TTITLE2=I know that you know
TTITLE3=Wire brush stomp
TTITLE4=Jungle madness
TTITLE5=Drummin' man
TTITLE6=Drummer boy
TTITLE7=Rhumboogie
TTITLE8=Drum boogie
TTITLE9=Let me off uptown
TTITLE10=Rockin' chair
TTITLE11=Thanks for the boogie ride
TTITLE12=That drummer's band
TTITLE13=Leave us leap
TTITLE14=What's this
TTITLE15=Dark eyes
TTITLE16=Opus no. 1
TTITLE17=Boogie blues
TTITLE18=Disc jockey jump
TTITLE19=Gene's boogie
TTITLE20=Bop boogie
EXTD=YEAR: 2005
EXTT0=
EXTT1=
EXTT2=
EXTT3=
EXTT4=
EXTT5=
EXTT6=
EXTT7=
EXTT8=
EXTT9=
EXTT10=
EXTT11=
EXTT12=
EXTT13=
EXTT14=
EXTT15=
EXTT16=
EXTT17=
EXTT18=
EXTT19=
EXTT20=
PLAYORDER=
